<svg width="109" height="112" viewBox="0 0 109 112" fill="none" xmlns="http://www.w3.org/2000/svg">
<g filter="url(#filter0_i_230_311)">
<path d="M34.6183 0C24.8838 0 15.5237 4.10667 9.03398 11.3244C2.5443 18.5422 -0.825346 28.1244 0.173066 37.7067L5.53953 95.2C6.41314 104.782 14.2756 112 23.8854 112C32.6215 112 40.1096 106.027 41.9816 97.5645C43.3544 91.3422 45.8504 85.3689 49.4697 80.1422L60.3274 63.9644C66.1931 55.2533 69.1883 45.1733 69.1883 34.5956C69.1883 15.4311 53.7129 0 34.6183 0ZM56.209 61.1022L45.3512 77.28C41.4824 83.1289 38.7367 89.6 37.1143 96.4445C35.7415 102.667 30.2502 107.022 23.8854 107.022C16.8965 107.022 11.0308 101.796 10.4068 94.8267L5.04033 37.3333C4.29152 29.12 7.03715 20.7822 12.6532 14.6844C18.2693 8.46222 26.2566 4.97778 34.6183 4.97778C50.9673 4.97778 64.1963 18.2933 64.1963 34.4711C64.1963 44.0533 61.4506 53.1378 56.209 61.1022ZM57.3322 35.0933C57.3322 36.4622 56.209 37.5822 54.8361 37.5822C53.4633 37.5822 52.3401 36.4622 52.3401 35.0933C52.3401 25.3867 44.3528 17.4222 34.6183 17.4222C29.6262 17.4222 24.8838 19.5378 21.5141 23.1467C18.1445 26.7556 16.5221 31.7333 17.0213 36.7111L18.3941 51.0222H21.8885C27.3798 51.0222 31.8727 55.5022 31.8727 60.9778C31.8727 66.4533 27.3798 70.9333 21.8885 70.9333H17.5205C16.1477 70.9333 15.0245 69.8133 15.0245 68.4445C15.0245 67.0756 16.1477 65.9556 17.5205 65.9556H21.8885C24.6342 65.9556 26.8806 63.7156 26.8806 60.9778C26.8806 58.24 24.6342 56 21.8885 56H16.1477C14.8996 56 13.7764 55.0044 13.6516 53.76L12.0292 37.0844C11.4052 30.7378 13.5268 24.3911 17.8949 19.7867C22.2629 15.1822 28.2534 12.4444 34.6183 12.4444C47.0984 12.4444 57.3322 22.5244 57.3322 35.0933ZM108.251 50.5244C109.25 51.52 109.25 53.0133 108.251 54.0089C107.752 54.5067 107.128 54.7556 106.504 54.7556C105.88 54.7556 105.256 54.5067 104.757 54.0089C101.387 50.6489 101.387 45.0489 104.757 41.6889C105.755 40.6933 107.253 40.6933 108.251 41.6889C109.25 42.6844 109.25 44.1778 108.251 45.1733C106.754 46.6667 106.754 49.1556 108.251 50.5244ZM99.3903 36.4622C93.0254 42.8089 93.0254 53.0133 99.3903 59.36C100.389 60.3556 100.389 61.8489 99.3903 62.8444C98.8911 63.3422 98.2671 63.5911 97.6431 63.5911C97.0191 63.5911 96.3951 63.3422 95.8958 62.8444C87.6589 54.6311 87.6589 41.1911 95.8958 32.9778C96.8943 31.9822 98.3919 31.9822 99.3903 32.9778C100.389 33.9733 100.389 35.4667 99.3903 36.4622ZM90.5294 68.1956C91.5278 69.1911 91.5278 70.6844 90.5294 71.68C90.0302 72.1778 89.4062 72.4267 88.7822 72.4267C88.1581 72.4267 87.5341 72.1778 87.0349 71.68C80.6701 65.3333 77.1756 56.8711 77.1756 47.9111C77.1756 38.9511 80.6701 30.4889 87.0349 24.1422C88.0333 23.1467 89.531 23.1467 90.5294 24.1422C91.5278 25.1378 91.5278 26.6311 90.5294 27.6267C85.1629 32.9778 82.1677 40.1956 82.1677 47.9111C82.1677 55.6267 85.1629 62.72 90.5294 68.1956Z" fill="#E9EBF1"/>
</g>
<defs>
<filter id="filter0_i_230_311" x="0" y="0" width="109" height="116" filterUnits="userSpaceOnUse" color-interpolation-filters="sRGB">
<feFlood flood-opacity="0" result="BackgroundImageFix"/>
<feBlend mode="normal" in="SourceGraphic" in2="BackgroundImageFix" result="shape"/>
<feColorMatrix in="SourceAlpha" type="matrix" values="0 0 0 0 0 0 0 0 0 0 0 0 0 0 0 0 0 0 127 0" result="hardAlpha"/>
<feOffset dy="4"/>
<feGaussianBlur stdDeviation="2"/>
<feComposite in2="hardAlpha" operator="arithmetic" k2="-1" k3="1"/>
<feColorMatrix type="matrix" values="0 0 0 0 0 0 0 0 0 0 0 0 0 0 0 0 0 0 0.25 0"/>
<feBlend mode="normal" in2="shape" result="effect1_innerShadow_230_311"/>
</filter>
</defs>
</svg>
